<?xml version="1.0" encoding="iso-8859-1"?>
<!-- Generator: Adobe Illustrator 18.0.0, SVG Export Plug-In . SVG Version: 6.00 Build 0)  -->
<!DOCTYPE svg PUBLIC "-//W3C//DTD SVG 1.1//EN" "http://www.w3.org/Graphics/SVG/1.1/DTD/svg11.dtd">
<svg version="1.1" id="Capa_1" xmlns="http://www.w3.org/2000/svg" xmlns:xlink="http://www.w3.org/1999/xlink" x="0px" y="0px"
	 viewBox="0 0 297 297" style="enable-background:new 0 0 297 297;" xml:space="preserve">
<g>
	<g>
		<circle style="fill:#E2C9B0;" cx="30.963" cy="162.972" r="30.963"/>
	</g>
	<g style="opacity:0.16;">
		<path style="fill:#DDC6A6;" d="M15.605,162.972c0-14.405,9.837-26.511,23.16-29.97c-2.493-0.647-5.107-0.993-7.803-0.993
			C13.863,132.009,0,145.872,0,162.972c0,17.1,13.863,30.963,30.963,30.963c2.695,0,5.31-0.346,7.803-0.993
			C25.443,189.483,15.605,177.377,15.605,162.972z"/>
	</g>
	<g>
		<circle style="fill:#E2C9B0;" cx="266.037" cy="162.972" r="30.963"/>
	</g>
	<g style="opacity:0.16;">
		<path style="fill:#DDC6A6;" d="M266.037,132.009c-2.695,0-5.31,0.346-7.803,0.993c13.323,3.459,23.16,15.565,23.16,29.97
			c0,14.405-9.837,26.511-23.16,29.97c2.493,0.647,5.107,0.993,7.803,0.993c17.1,0,30.963-13.863,30.963-30.963
			C297,145.872,283.137,132.009,266.037,132.009z"/>
	</g>
	<g>
		<ellipse style="fill:#EAD5BB;" cx="148.5" cy="150.648" rx="121.204" ry="95.231"/>
	</g>
	<g>
		<path style="fill:#32373B;" d="M67.698,170.849c0-6.375,5.168-11.543,11.543-11.543s11.543,5.168,11.543,11.543
			s-5.168,4.589-11.543,4.589S67.698,177.224,67.698,170.849z"/>
	</g>
	<g>
		<path style="fill:#32373B;" d="M200.444,170.849c0-6.375,5.168-11.543,11.543-11.543s11.543,5.168,11.543,11.543
			s-5.168,4.589-11.543,4.589S200.444,177.224,200.444,170.849z"/>
	</g>
	<g>
		<g>
			<circle style="fill:#82D9C8;" cx="148.5" cy="211.25" r="34.63"/>
		</g>
	</g>
	<g style="opacity:0.6;">
		<path style="fill:#BDC3C7;" d="M148.5,176.62c-2.613,0-5.155,0.299-7.603,0.848c15.466,3.466,27.027,17.27,27.027,33.782
			c0,16.512-11.56,30.316-27.027,33.782c2.448,0.549,4.99,0.848,7.603,0.848c19.125,0,34.63-15.504,34.63-34.63
			C183.13,192.125,167.625,176.62,148.5,176.62z"/>
	</g>
	<g>
		<circle style="fill:#BDC3C7;" cx="148.5" cy="211.25" r="17.315"/>
	</g>
	<g>
		<path style="fill:#32373B;" d="M148.5,76.231c-1.933,0-3.5-1.567-3.5-3.5v-34.63c0-7.617-6.197-13.814-13.814-13.814
			c-7.618,0-13.815,6.197-13.815,13.814c0,7.618,6.197,13.815,13.815,13.815c1.933,0,3.5,1.567,3.5,3.5s-1.567,3.5-3.5,3.5
			c-11.478,0-20.815-9.338-20.815-20.815s9.338-20.814,20.815-20.814S152,26.624,152,38.102v34.63
			C152,74.664,150.433,76.231,148.5,76.231z"/>
	</g>
	<g>
		<g>
			<circle style="fill:#DA768E;" cx="83.569" cy="206.921" r="12.986"/>
		</g>
	</g>
	<g>
		<g>
			<circle style="fill:#DA768E;" cx="204.773" cy="206.921" r="12.986"/>
		</g>
	</g>
	<g>
		<path style="fill:#345065;" d="M148.5,279.713c-18.655,0-33.833-15.178-33.833-33.833c0-18.656,15.178-33.834,33.833-33.834
			s33.833,15.178,33.833,33.834C182.333,264.535,167.155,279.713,148.5,279.713z M148.5,223.046
			c-12.59,0-22.833,10.243-22.833,22.834c0,12.59,10.243,22.833,22.833,22.833s22.833-10.243,22.833-22.833
			C171.333,233.289,161.09,223.046,148.5,223.046z"/>
	</g>
	<g style="opacity:0.16;">
		<path style="fill:#DDC6A6;" d="M148.5,75.767c62.564,0,114.05,37.246,120.514,85.056c0.452-3.344,0.689-6.737,0.689-10.175
			c0-52.595-54.265-95.231-121.204-95.231S27.296,98.053,27.296,150.648c0,3.438,0.237,6.832,0.689,10.175
			C34.45,113.013,85.936,75.767,148.5,75.767z"/>
	</g>
</g>
<g>
</g>
<g>
</g>
<g>
</g>
<g>
</g>
<g>
</g>
<g>
</g>
<g>
</g>
<g>
</g>
<g>
</g>
<g>
</g>
<g>
</g>
<g>
</g>
<g>
</g>
<g>
</g>
<g>
</g>
</svg>
