<?xml version="1.0" encoding="utf-8"?>
<!-- Generator: Adobe Illustrator 22.1.0, SVG Export Plug-In . SVG Version: 6.00 Build 0)  -->
<svg version="1.1" id="Capa_1" xmlns="http://www.w3.org/2000/svg" xmlns:xlink="http://www.w3.org/1999/xlink" x="0px" y="0px"
	 viewBox="0 0 297 297" style="enable-background:new 0 0 297 297;" xml:space="preserve">
<style type="text/css">
	.st0{fill:#E2C9B0;}
	.st1{opacity:0.16;}
	.st2{fill:#DDC6A6;}
	.st3{fill:#EAD5BB;}
	.st4{fill:#82D9C8;}
	.st5{opacity:0.6;}
	.st6{fill:#BDC3C7;}
	.st7{fill:#32373B;}
	.st8{fill:#DA768E;}
	.st9{fill:#345065;}
</style>
<g>
	<circle class="st0" cx="31" cy="163" r="31"/>
</g>
<g class="st1">
	<path class="st2" d="M15.6,163c0-14.4,9.8-26.5,23.2-30c-2.5-0.6-5.1-1-7.8-1c-17.1,0-31,13.9-31,31s13.9,31,31,31
		c2.7,0,5.3-0.3,7.8-1C25.4,189.5,15.6,177.4,15.6,163z"/>
</g>
<g>
	<ellipse transform="matrix(0.1602 -0.9871 0.9871 0.1602 62.555 399.4686)" class="st0" cx="266" cy="163" rx="31" ry="31"/>
</g>
<g class="st1">
	<path class="st2" d="M266,132c-2.7,0-5.3,0.3-7.8,1c13.3,3.5,23.2,15.6,23.2,30s-9.8,26.5-23.2,30c2.5,0.6,5.1,1,7.8,1
		c17.1,0,31-13.9,31-31S283.1,132,266,132z"/>
</g>
<g>
	<ellipse class="st3" cx="148.5" cy="150.6" rx="121.2" ry="95.2"/>
</g>
<g>
	<g>
		<circle class="st4" cx="148.5" cy="211.3" r="34.6"/>
	</g>
</g>
<g class="st5">
	<path class="st6" d="M148.5,176.6c-2.6,0-5.2,0.3-7.6,0.8c15.5,3.5,27,17.3,27,33.8s-11.6,30.3-27,33.8c2.4,0.5,5,0.8,7.6,0.8
		c19.1,0,34.6-15.5,34.6-34.6C183.1,192.1,167.6,176.6,148.5,176.6z"/>
</g>
<g>
	<circle class="st6" cx="148.5" cy="211.3" r="17.3"/>
</g>
<g>
	<path class="st7" d="M148.5,76.2c-1.9,0-3.5-1.6-3.5-3.5V38.1c0-7.6-6.2-13.8-13.8-13.8c-7.6,0-13.8,6.2-13.8,13.8
		c0,7.6,6.2,13.8,13.8,13.8c1.9,0,3.5,1.6,3.5,3.5s-1.6,3.5-3.5,3.5c-11.5,0-20.8-9.3-20.8-20.8s9.3-20.8,20.8-20.8
		S152,26.6,152,38.1v34.6C152,74.7,150.4,76.2,148.5,76.2z"/>
</g>
<g>
	<g>
		<circle class="st8" cx="83.6" cy="206.9" r="13"/>
	</g>
</g>
<g>
	<g>
		<circle class="st8" cx="204.8" cy="206.9" r="13"/>
	</g>
</g>
<g>
	<path class="st9" d="M148.5,279.7c-18.7,0-33.8-15.2-33.8-33.8c0-18.7,15.2-33.8,33.8-33.8s33.8,15.2,33.8,33.8
		C182.3,264.5,167.2,279.7,148.5,279.7z M148.5,223c-12.6,0-22.8,10.2-22.8,22.8c0,12.6,10.2,22.8,22.8,22.8s22.8-10.2,22.8-22.8
		C171.3,233.3,161.1,223,148.5,223z"/>
</g>
<g class="st1">
	<path class="st2" d="M148.5,75.8c62.6,0,114,37.2,120.5,85.1c0.5-3.3,0.7-6.7,0.7-10.2c0-52.6-54.3-95.2-121.2-95.2
		S27.3,98.1,27.3,150.6c0,3.4,0.2,6.8,0.7,10.2C34.5,113,85.9,75.8,148.5,75.8z"/>
</g>
</svg>
