<?xml version="1.0" encoding="utf-8"?>
<!-- Generator: Adobe Illustrator 22.1.0, SVG Export Plug-In . SVG Version: 6.00 Build 0)  -->
<svg version="1.1" id="Layer_1" xmlns="http://www.w3.org/2000/svg" xmlns:xlink="http://www.w3.org/1999/xlink" x="0px" y="0px"
	 viewBox="0 0 464 464" style="enable-background:new 0 0 464 464;" xml:space="preserve">
<style type="text/css">
	.st0{fill:#5E342E;}
	.st1{fill:#683F39;}
	.st2{fill:#F6B47B;}
	.st3{fill:#E2A071;}
	.st4{fill:#FFAB3B;}
	.st5{fill:#FFC84A;}
	.st6{fill:#FDC88E;}
	.st7{fill:#00AB9A;}
	.st8{fill:#00BEA4;}
</style>
<g>
	<path class="st0" d="M101.9,153C94,172.9,86,201.6,86,236.9c0,46.7,118.7,67,148,67V153H101.9z"/>
	<path class="st1" d="M234,153v150.9c29.3,0,148-20.3,148-67c0-35.3-8-64-15.9-83.9L234,153L234,153z"/>
</g>
<path class="st2" d="M384.4,436.8l-9.2-68.9c-2-14.7-11.9-27.1-25.8-32.3l-54.4-20c-6.5-2.2-10.9-8.3-10.9-15.2v-25.8l34.5-14.4
	c17.9-7.5,29.5-24.9,29.5-44.3v-8c13.3,0,24-10.7,24-24s-10.7-24-24-24v-16c0-22.1-17.9-56-40-56H164c-22.1,0-40,33.9-40,56v16
	c-13.3,0-24,10.7-24,24s10.7,24,24,24v8c0,19.4,11.7,36.9,29.5,44.3l34.5,14.4v25.8c0,6.9-4.4,13-10.9,15.2l-54.4,20
	c-13.9,5.1-23.9,17.5-25.8,32.3l-9.2,68.9c-1.9,14.4,9.3,27.2,23.8,27.2h249.2C375.1,464,386.3,451.2,384.4,436.8z"/>
<path class="st3" d="M284,274.7l-96,0v25.8c0,5.7-3,10.9-7.8,13.7C247.2,325.7,284,274.7,284,274.7z"/>
<path class="st4" d="M120.2,164.3H76c-5.7,0-9.5,5.7-7.4,11l8.1,20.3c1.8,4.6,7.3,6.4,11.5,3.9l31.9-19.2V164.3z"/>
<path class="st5" d="M120.2,164.3H76c-5.7,0-9.5-5.7-7.4-11l8.1-20.3c1.8-4.6,7.3-6.4,11.5-3.9l31.9,19.2V164.3z"/>
<path class="st4" d="M343.8,164.3H388c5.7,0,9.5,5.7,7.4,11l-8.1,20.3c-1.8,4.6-7.3,6.4-11.5,3.9l-31.9-19.2V164.3z"/>
<path class="st5" d="M343.8,164.3H388c5.7,0,9.5-5.7,7.4-11l-8.1-20.3c-1.8-4.6-7.3-6.4-11.5-3.9l-31.9,19.2V164.3z"/>
<path class="st6" d="M318.5,260.3l-51.7,21.5c-9.7,4.1-20.2,6.2-30.8,6.2l0,0c-10.6,0-21-2.1-30.8-6.2l-51.7-21.5
	c-17.9-7.5-29.5-24.9-29.5-44.3v-72c0-22.1,17.9-56,40-56h144c22.1,0,40,33.9,40,56v72C348,235.4,336.4,252.9,318.5,260.3z"/>
<circle class="st6" cx="348" cy="184" r="24"/>
<path class="st2" d="M257,85l-133,59v16c-13.3,0-24,10.7-24,24s10.7,24,24,24v8c0,19.4,11.7,36.9,29.5,44.3l51.7,21.5
	c2.5,1.1,5.1,2,7.7,2.7c-22.8-16.7-38.1-31.3-47-40.9c-6.5-6.9-10-16.1-10-25.6v-51.4c27.5-6.4,108-35.4,128-70.7L257,85z"/>
<path class="st7" d="M327.8,326.7l-28.8,46.1c-4.4,7-12.1,11.3-20.4,11.3h-85.4c-8.3,0-16-4.3-20.4-11.3l-28.8-46.1
	c-2.3-3.7-7.2-4.9-10.9-2.6L107,339.8c-3.8,2.3-5,7.3-2.7,11.1L140,408h192l35.7-57.1c2.4-3.8,1.2-8.8-2.7-11.1L338.7,324
	C335,321.8,330.1,323,327.8,326.7z"/>
<rect x="140" y="408" class="st8" width="192" height="56"/>
<path class="st1" d="M292,8c-11.6,0-19.8,1.6-25.7,3.8C258,4.7,245.8,0,228,0c-39,0-128,27-128,112c0,38.7,24,48,24,48
	s102.8-28.7,143.6-66.5C298,141.4,348,160,348,160s16-22,16-64S319.3,8,292,8z"/>
<path class="st0" d="M228,0c-39,0-128,27-128,112c0,38.7,24,48,24,48s0.3-0.1,0.9-0.3c19.8-16.7,110-94.3,141.7-147.6
	c-0.5-0.4-1-0.9-1.5-1.4C256.8,4.2,244.9,0,228,0z"/>
</svg>
