<?xml version="1.0" encoding="utf-8"?>
<!-- Generator: Adobe Illustrator 22.1.0, SVG Export Plug-In . SVG Version: 6.00 Build 0)  -->
<svg version="1.1" id="Layer_1" xmlns="http://www.w3.org/2000/svg" xmlns:xlink="http://www.w3.org/1999/xlink" x="0px" y="0px"
	 viewBox="0 0 464 464" style="enable-background:new 0 0 464 464;" xml:space="preserve">
<style type="text/css">
	.st0{fill:#E69F5F;}
	.st1{fill:#E09156;}
	.st2{fill:#FFD7A3;}
	.st3{fill:#FDC88E;}
	.st4{fill:#FFE1B2;}
	.st5{fill:#FF6473;}
	.st6{fill:#F05467;}
	.st7{fill:#D4445A;}
</style>
<g>
	<path class="st0" d="M400,400c0,0-58.9,24-168,24S64,400,64,400l21.2-264.5C91.3,59,155.2,0,232,0h0.1c76.8,0,140.7,59,146.8,135.5
		L400,400z"/>
</g>
<g>
	<path class="st1" d="M274.8,6.4C261.2,2.3,246.9,0,232,0H232C155.2,0,91.3,59,85.2,135.5L64,400c0,0,28.9,11.7,83.5,18.8L274.8,6.4
		z"/>
</g>
<path class="st2" d="M383.4,414l-1.5-5.2c-0.7-2.5-3.2-4.1-5.7-3.8l-5.3-40c-1.8-13.1-9.9-24.6-21.8-30.5l-17.2-8.6
	c-2.6-1.3-5.5-0.1-6.8,2.3l-34.1-12.5c-6.5-2.2-10.9-8.3-10.9-15.2v-25.8l34.5-14.4c17.9-7.5,29.5-24.9,29.5-44.3v-8
	c13.3,0,24-10.7,24-24s-10.7-24-24-24v-16c0-22.1-17.9-56-40-56H160c-22.1,0-40,33.9-40,56v16c-13.3,0-24,10.7-24,24s10.7,24,24,24
	v8c0,19.4,11.7,36.9,29.5,44.3l34.5,14.4v25.8c0,6.9-4.4,13-10.9,15.2L139,328.2c-1.2-2.4-4.2-3.6-6.7-2.3l-15.7,7.9
	c-13.4,6.7-21.6,18.1-23.3,31.3l-5.3,40c-2.5-0.3-5,1.2-5.7,3.8l-1.5,5.2c-0.8,2.8,0.8,5.7,3.6,6.5L96,424v24c0,8.8,7.2,16,16,16h32
	h176h32c8.8,0,16-7.2,16-16v-24l11.8-3.4C382.6,419.7,384.2,416.8,383.4,414z"/>
<path class="st3" d="M280,274.7l-96,0v25.8c0,5.7-3,10.9-7.8,13.7C243.2,325.7,280,274.7,280,274.7z"/>
<path class="st4" d="M344,160v-16c0-22.1-17.9-56-40-56H160c-22.1,0-40,33.9-40,56v16c-13.3,0-24,10.7-24,24s10.7,24,24,24v8
	c0,19.4,11.7,36.9,29.5,44.3l51.7,21.5c9.8,4.1,20.2,6.2,30.8,6.2l0,0c10.6,0,21-2.1,30.8-6.2l51.7-21.5
	c17.9-7.5,29.5-24.9,29.5-44.3v-8c13.3,0,24-10.7,24-24S357.3,160,344,160z"/>
<g>
	<path class="st2" d="M162,243.7c-6.5-6.9-10-16.1-10-25.6v-34.4c43.6-3.3,102.5-32.2,137.8-59.9L280,114c0,0-71,46-160,46l0,0v0
		c-13.3,0-24,10.7-24,24s10.7,24,24,24v8c0,19.4,11.7,36.9,29.5,44.3l51.7,21.5c2.5,1.1,5.1,2,7.7,2.7
		C186.1,267.9,170.9,253.3,162,243.7z"/>
</g>
<g>
	<path class="st5" d="M377.2,412.9l-6.4-47.9c-1.8-13.1-9.9-24.6-21.8-30.5l-17.2-8.6c-2.9-1.5-6.3,0.2-7.2,3.4
		C313.5,370,276.3,400,232,400c-44.3,0-81.6-30-92.6-70.8c-0.9-3.1-4.2-4.8-7.1-3.3l-15.7,7.9c-13.4,6.7-21.6,18.1-23.3,31.3
		l-6.5,48.8C107.8,421.1,144,432,144,432v32h176v-32L377.2,412.9z"/>
</g>
<g>
	<path class="st6" d="M143.8,429.6c-0.5-9.5-3.7-18.7-9.4-26.4l-37.6-50.1c-1.8,3.7-3.1,7.7-3.6,11.9l-6.3,47.6L143.8,429.6z"/>
</g>
<g>
	<path class="st7" d="M80.6,414c-0.8,2.8,0.8,5.7,3.6,6.5L144,438v-6c0-3.8-0.6-7.5-1.5-11.1l-53.9-15.7c-2.8-0.8-5.7,0.8-6.5,3.6
		L80.6,414z"/>
</g>
<g>
	<path class="st6" d="M320.2,429.6c0.5-9.5,3.7-18.7,9.4-26.4l37.6-50.1c1.8,3.7,3.1,7.7,3.6,11.9l6.3,47.6L320.2,429.6z"/>
</g>
<g>
	<path class="st7" d="M383.4,414c0.8,2.8-0.8,5.7-3.6,6.5L320,438v-6c0-3.8,0.6-7.5,1.5-11.1l53.9-15.7c2.8-0.8,5.7,0.8,6.5,3.6
		L383.4,414z"/>
</g>
<path class="st0" d="M103.7,113l0.3,53.1c75.5,0,138.1-23.6,179.2-44.8c-12.8,13.8-32,32.7-59.2,54.8c0,0,71.2-28.3,111.1-63.5v0
	c0-52.2-42.3-94.5-94.5-94.5h-42.4C145.9,18,103.5,60.6,103.7,113z"/>
<path class="st1" d="M269.8,22.6c-9.2-3-19-4.6-29.2-4.6h-42.4c-52.4,0-94.8,42.6-94.5,95l0.3,53.1c22,0,42.9-2,62.5-5.4
	C238.8,105.3,269.7,22.9,269.8,22.6z"/>
</svg>
