<?xml version="1.0" encoding="utf-8"?>
<!-- Generator: Adobe Illustrator 22.1.0, SVG Export Plug-In . SVG Version: 6.00 Build 0)  -->
<svg version="1.1" id="Layer_1" xmlns="http://www.w3.org/2000/svg" xmlns:xlink="http://www.w3.org/1999/xlink" x="0px" y="0px"
	 viewBox="0 0 512 512" style="enable-background:new 0 0 512 512;" xml:space="preserve">
<style type="text/css">
	.st0{fill:#5A4146;}
	.st1{fill:#E6AF78;}
	.st2{fill:#D29B6E;}
	.st3{fill:#28AFF0;}
	.st4{fill:#F0C087;}
	.st5{fill:#23A0EB;}
</style>
<path class="st0" d="M423.7,315.6c0.1,7-4.1,13.3-10.5,16.3c-40,18.6-95.7,30.1-157.2,30.1s-117.2-11.5-157.2-30.1
	c-6.4-3-10.5-9.3-10.5-16.3C89.6,147.1,120.4,0,256,0S422.4,147.1,423.7,315.6z"/>
<path class="st1" d="M317.8,342.8v-42.7H194.2v42.7c0,11.4-7.3,21.5-18.1,25.1L92,396c-18,6-30.2,22.9-30.2,41.9v56.5
	c0,9.8,7.9,17.7,17.7,17.7h353.1c9.8,0,17.7-7.9,17.7-17.7v-56.5c0-19-12.2-35.9-30.2-41.9l-84.1-28
	C325.1,364.4,317.8,354.2,317.8,342.8z"/>
<path class="st2" d="M194.2,342.8c0,10.7-6.5,20.2-16.2,24.3c98.9,16.9,139.7-53.8,139.7-53.8l0,0v-13.2H194.2V342.8z"/>
<path class="st3" d="M420,396l-68.7-22.9c-32.7,44.4-70.9,69.2-95.3,77.1c-24.4-7.9-62.6-32.7-95.3-77.1L92,396
	c-18,6-30.2,22.9-30.2,41.9v56.5c0,9.8,7.9,17.7,17.7,17.7h353.1c9.8,0,17.7-7.9,17.7-17.7v-56.5C450.2,418.9,438,402,420,396z"/>
<path class="st4" d="M370.1,185.4L370.1,185.4c-0.3,0-0.5,0-0.8,0c0.9-13.8,1.4-27.6,1.4-41.4v-38.1H141.2V144
	c0,13.8,0.5,27.6,1.4,41.4c-0.3,0-0.5,0-0.8,0h0c-11.9,0-20.6,11.2-17.7,22.7l10,39.9c1.2,4.7,5.4,8,10.3,8c1.3,0,2.5-0.2,3.6-0.6
	l0.2,2.1c1.2,15.8,9.4,30.2,22.4,39.3l53.3,37.3c9.4,6.6,20.6,10.1,32.1,10.1h0c11.5,0,22.7-3.5,32.1-10.1l53.3-37.3
	c13-9.1,21.2-23.5,22.4-39.3l0.2-2.1c1.1,0.4,2.3,0.6,3.6,0.6l0,0c4.9,0,9.1-3.3,10.3-8l10-39.9C390.7,196.6,382,185.4,370.1,185.4z
	"/>
<path class="st1" d="M370.1,105.9H141.2V144c0,4.9,0.2,9.8,0.3,14.7v0c0.1,5.9,0.4,11.8,0.7,17.7c0,0,0,0,0,0v0c0.2,3,0.3,6,0.5,9
	c-0.3,0-0.5,0-0.8,0h0c-11.9,0-20.6,11.2-17.7,22.7l10,39.9c1.2,4.7,5.4,8,10.3,8c1.3,0,2.5-0.2,3.6-0.6l0.2,2.1
	c1.2,15.8,9.4,30.2,22.4,39.3l53.3,37.3c9.4,6.6,20.6,10.1,32.1,10.1c-14.2,0-29.7-24.4-39.5-42.9c-6.4-12.2-9.9-25.7-10.1-39.5
	l-1.5-79.9c-0.1-6.4,4.5-11.8,10.8-12.9c47.3-8.2,84.9-21.6,106.4-31.1c17,28.1,39.5,36.6,42.4,37.6l2.8,0.9h2.6
	c0.3-5.9,0.5-11.8,0.7-17.7L370.1,105.9z"/>
<g>
	<path class="st5" d="M122.1,457.5l-49-49c-7.1,7.9-11.3,18.2-11.3,29.3v56.5c0,9.8,7.9,17.7,17.7,17.7h53v-29.5
		C132.4,473.1,128.7,464.1,122.1,457.5z"/>
	<path class="st5" d="M389.9,457.5l49-49c7.1,7.9,11.3,18.2,11.3,29.3v56.5c0,9.8-7.9,17.7-17.7,17.7h-53v-29.5
		C379.6,473.1,383.3,464.1,389.9,457.5z"/>
</g>
<path class="st0" d="M132.4,97.1v61.8c104.6,0,184.2-36.4,197.5-44.5c14.3,35.6,40.2,44.5,40.2,44.5h9.5V97.1H132.4z"/>
<path class="st5" d="M146.5,383.6c35.5,48.1,77,74.6,104,83.4l5.5,1.8l5.5-1.8c27-8.8,68.6-35.3,104-83.4l3.2-4.7l-17.4-5.8
	c-32.7,44.4-70.9,69.2-95.3,77.1c-24.4-7.9-62.6-32.7-95.3-77.1l-17.4,5.8L146.5,383.6z"/>
</svg>
